# xmcd CD database file
# Copyright (C) 1993-1998 Ti Kan
# 
# Track frame offsets:
#     150
#     15972
#     26185
#     39765
#     52480
#     64360
#     76715
#     90162
#     102942
#     116145
#     130235
#     144212
# 
# Disc length: 2113 seconds
# 
# Revision: 1
# Processed by: cddbd v1.4b41PL1 Copyright (c) Steve Scherf et al.
# Submitted via: DiscPlay 4.0.4
# 
DISCID=94083f0c
DTITLE=Varios - Musica Nacional 1
DYEAR=1900
DGENRE=
TTITLE0=Peque a ciudadana - Hnos.Mi o Naranjo
TTITLE1=Faltandome Tu - Hnos.Villamar
TTITLE2=La cancion del dolor - Hnos.Montecel
TTITLE3=El Chulla quite o - Benitez Valencia
TTITLE4=Arbol frondoso - Hnos.Mi o Naranjo
TTITLE5=El esclavo - Hnos.Villamar
TTITLE6=Adios, adios - Hnos.Montecel
TTITLE7=Aungustia - Benitez Valencia
TTITLE8=Quisiera - Hnos.Mi o Naranjo
TTITLE9=Casamiento de indios - Hnos.Villamar
TTITLE10=Palpita corazon - Hnos.Montecel
TTITLE11=Rebeldia - Benitez Valencia
EXTD=
EXTT0=
EXTT1=
EXTT2=
EXTT3=
EXTT4=
EXTT5=
EXTT6=
EXTT7=
EXTT8=
EXTT9=
EXTT10=
EXTT11=
PLAYORDER=
